<?xml version="1.0" encoding="iso-8859-1"?>
<svg version="1.1" id="Layer_1" xmlns="http://www.w3.org/2000/svg" xmlns:xlink="http://www.w3.org/1999/xlink" x="0px" y="0px"
	 viewBox="0 0 512 512" style="enable-background:new 0 0 512 512;" xml:space="preserve">
<rect x="13.128" y="13.128" style="fill:#EFEFEF;" width="485.744" height="485.744"/>
<rect x="13.128" y="13.128" style="fill:#61ACD2;" width="485.744" height="78.769"/>
<rect x="13.128" y="13.128" style="fill:#F4A026;" width="78.769" height="78.769"/>
<rect x="420.103" y="13.128" style="fill:#CA463D;" width="78.769" height="78.769"/>
<path d="M202.042,199.238c-6.938-2.103-14.268,1.82-16.371,8.759l-55.138,182.045c-2.102,6.938,1.82,14.268,8.759,16.37
	c1.27,0.385,2.549,0.568,3.811,0.568c5.633,0,10.841-3.656,12.56-9.326l55.138-182.045
	C212.901,208.668,208.981,201.338,202.042,199.238z"/>
<path d="M268.994,199.238c-6.93-2.103-14.268,1.82-16.37,8.759l-55.138,182.045c-2.102,6.938,1.82,14.268,8.759,16.37
	c1.269,0.385,2.549,0.568,3.811,0.568c5.633,0,10.841-3.656,12.56-9.326l55.138-182.045
	C279.857,208.668,275.935,201.338,268.994,199.238z"/>
<path d="M498.872,0H13.128C5.877,0,0,5.879,0,13.128v485.744C0,506.121,5.877,512,13.128,512h485.744
	c7.249,0,13.128-5.879,13.128-13.128V13.128C512,5.879,506.121,0,498.872,0z M485.744,26.256v52.513h-52.513V26.256H485.744z
	 M105.026,78.769V26.256h301.949v52.513H105.026z M26.256,26.256h52.513v52.513H26.256V26.256z M26.256,485.744V105.026h459.487
	v380.718H26.256z"/>
<circle cx="93.867" cy="245.064" r="13.128"/>
<circle cx="93.867" cy="360.592" r="13.128"/>
<path d="M429.292,380.718H307.2c-7.249,0-13.128,5.879-13.128,13.128s5.879,13.128,13.128,13.128h122.092
	c7.249,0,13.128-5.879,13.128-13.128S436.542,380.718,429.292,380.718z"/>
<g>
</g>
<g>
</g>
<g>
</g>
<g>
</g>
<g>
</g>
<g>
</g>
<g>
</g>
<g>
</g>
<g>
</g>
<g>
</g>
<g>
</g>
<g>
</g>
<g>
</g>
<g>
</g>
<g>
</g>
</svg>
