<svg xmlns:dc="http://purl.org/dc/elements/1.1/" xmlns:cc="http://creativecommons.org/ns#" xmlns:rdf="http://www.w3.org/1999/02/22-rdf-syntax-ns#" xmlns:svg="http://www.w3.org/2000/svg" xmlns="http://www.w3.org/2000/svg" xmlns:sodipodi="http://sodipodi.sourceforge.net/DTD/sodipodi-0.dtd" xmlns:inkscape="http://www.inkscape.org/namespaces/inkscape" viewBox="0 0 149.84967 37.9846" id="logo" width="149.84967" height="37.9846" version="1.1" sodipodi:docname="Axios.svg" inkscape:version="1.0 (4035a4fb49, 2020-05-01)">
  <metadata id="metadata17">
    <rdf:RDF>
      <cc:Work rdf:about="">
        <dc:format>image/svg+xml</dc:format>
        <dc:type rdf:resource="http://purl.org/dc/dcmitype/StillImage"/>
        <dc:title/>
      </cc:Work>
    </rdf:RDF>
  </metadata>
  <defs id="defs15"/>
  <sodipodi:namedview fit-margin-bottom="0" fit-margin-right="0" fit-margin-left="0" fit-margin-top="0" inkscape:document-rotation="0" pagecolor="#ffffff" bordercolor="#666666" borderopacity="1" objecttolerance="10" gridtolerance="10" guidetolerance="10" inkscape:pageopacity="0" inkscape:pageshadow="2" inkscape:window-width="1920" inkscape:window-height="1000" id="namedview13" showgrid="false" inkscape:zoom="6.7175144" inkscape:cx="81.989245" inkscape:cy="46.974697" inkscape:window-x="-11" inkscape:window-y="-11" inkscape:window-maximized="1" inkscape:current-layer="logo"/>
  <g transform="translate(0,-0.09345415)" id="g14">
    <polygon fill="#222222" points="69.32,36.888 78.257,36.888 78.257,1.236 69.32,1.236 " id="polygon2" style="fill-rule:evenodd"/>
    <path fill="#222222" d="m 100.44836,29.379628 c 5.67905,0 9.85138,-4.865852 9.85138,-10.328081 0,-5.462701 -4.19567,-10.2823156 -9.85138,-10.2823156 -5.679045,0 -9.87448,4.8196146 -9.87448,10.2823156 0,5.462229 4.195435,10.328081 9.87448,10.328081 m 0.0696,-29.28617385 c 10.70886,0 19.33203,8.21669895 19.33203,18.88920685 0,10.718275 -8.6925,19.095392 -19.42494,19.095392 -10.732207,0 -19.424469,-8.26223 -19.424469,-18.957621 0,-10.6727441 8.80853,-19.02697785 19.517379,-19.02697785 m 20.35988,26.01270485 8.20003,-1.929025 c 0.58897,4.283866 3.73751,5.831663 7.04449,5.831663 3.28482,0 4.48539,-1.929026 4.48539,-3.431764 0,-1.211155 -0.70238,-2.399899 -3.10351,-2.870772 l -5.00622,-0.964631 c -5.97996,-1.143685 -10.21566,-4.867032 -10.21566,-10.586401 0,-6.8182329 6.27421,-11.61803064 13.36444,-11.61803064 9.12875,0 12.88889,5.65213584 13.546,10.38469964 l -8.04159,2.242784 c -0.43029,-2.915831 -2.24246,-5.0239113 -5.54968,-5.0239113 -2.85429,0 -4.2133,1.8839663 -4.2133,3.3192353 0,1.188743 0.56633,2.557014 2.69562,2.960653 l 5.20992,0.986806 c 6.81815,1.301037 10.5559,5.427787 10.5559,10.78834 0,5.831662 -5.07412,11.438739 -13.77234,11.438739 -9.10611,0 -13.99892,-4.732564 -15.19949,-11.528385" id="path4" style="fill-rule:evenodd"/>
    <polygon fill="#0a99e0" points="9.618,36.888 0,36.888 15.904,1.236 25.568,1.236 " id="polygon6" style="fill:#3b6be3;fill-opacity:1;fill-rule:evenodd"/>
    <polygon fill="#222222" points="43.448,1.214 32.37,1.214 44.472,18.658 37.738,28.434 25.606,1.235 15.941,1.235 31.892,36.888 42.207,36.888 49.742,25.586 57.188,36.888 67.616,36.888 55.169,18.658 67.115,1.214 56.185,1.214 49.742,11.774 " id="polygon8" style="fill-rule:evenodd"/>
  </g>
</svg>