<?xml version="1.0" encoding="UTF-8" standalone="no"?>
<svg
   xmlns:dc="http://purl.org/dc/elements/1.1/"
   xmlns:cc="http://creativecommons.org/ns#"
   xmlns:rdf="http://www.w3.org/1999/02/22-rdf-syntax-ns#"
   xmlns:svg="http://www.w3.org/2000/svg"
   xmlns="http://www.w3.org/2000/svg"
   xmlns:sodipodi="http://sodipodi.sourceforge.net/DTD/sodipodi-0.dtd"
   xmlns:inkscape="http://www.inkscape.org/namespaces/inkscape"
   width="512"
   height="512"
   viewBox="0 0 135.46666 135.46668"
   version="1.1"
   id="svg1346"
   inkscape:version="1.0.1 (3bc2e813f5, 2020-09-07)"
   sodipodi:docname="icon.svg">
  <defs
     id="defs1340">
    <rect
       x="176.45239"
       y="148.93062"
       width="85.069801"
       height="18.618977"
       id="rect1153" />
    <rect
       x="176.45239"
       y="148.93062"
       width="85.069801"
       height="18.618977"
       id="rect1326" />
  </defs>
  <sodipodi:namedview
     id="base"
     pagecolor="#ffffff"
     bordercolor="#666666"
     borderopacity="1.0"
     inkscape:pageopacity="0.0"
     inkscape:pageshadow="2"
     inkscape:zoom="0.98994949"
     inkscape:cx="201.97219"
     inkscape:cy="164.55573"
     inkscape:document-units="mm"
     inkscape:current-layer="layer1"
     inkscape:document-rotation="0"
     showgrid="false"
     units="px"
     fit-margin-top="0"
     fit-margin-left="0"
     fit-margin-right="0"
     fit-margin-bottom="0"
     inkscape:window-width="1920"
     inkscape:window-height="1016"
     inkscape:window-x="0"
     inkscape:window-y="0"
     inkscape:window-maximized="1"
     inkscape:snap-global="true" />
  <metadata
     id="metadata1343">
    <rdf:RDF>
      <cc:Work
         rdf:about="">
        <dc:format>image/svg+xml</dc:format>
        <dc:type
           rdf:resource="http://purl.org/dc/dcmitype/StillImage" />
        <dc:title></dc:title>
      </cc:Work>
    </rdf:RDF>
  </metadata>
  <g
     inkscape:label="Layer 1"
     inkscape:groupmode="layer"
     id="layer1"
     transform="translate(-6.1889782,9.1640791)">
    <g
       id="g2512">
      <g
         id="g2500">
        <path
           id="path1122"
           style="fill:#2b74a3;fill-opacity:1;stroke:#2b74a3;stroke-width:1.96058;stroke-linecap:round;stroke-linejoin:round;stroke-miterlimit:4;stroke-dasharray:none;stroke-dashoffset:5;stroke-opacity:1"
           d="m 104.18955,68.576246 -1.99544,1.942462 A 57.43976,21.542512 0.4848549 0 1 130.3413,89.307869 57.43976,21.542512 0.4848549 0 1 72.757631,110.38001 57.43976,21.542512 0.4848549 0 1 15.464781,88.361221 57.43976,21.542512 0.4848549 0 1 43.111352,70.198243 L 41.660753,68.707688 A 66.095972,28.391281 0.4241319 0 0 7.9300732,93.162372 66.095972,28.391281 0.4241319 0 0 73.809466,122.04996 66.095972,28.391281 0.4241319 0 0 140.11924,94.149378 66.095972,28.391281 0.4241319 0 0 104.18955,68.576246 Z" />
        <path
           id="path1124"
           style="fill:#2b74a3;fill-opacity:1;stroke:#2b74a3;stroke-width:9.56005;stroke-linecap:round;stroke-linejoin:round;stroke-miterlimit:4;stroke-dasharray:none;stroke-dashoffset:5;stroke-opacity:1"
           d="M 158.61523 321.89258 A 143.00552 50.76215 0.41919308 0 0 106.42969 360.62695 A 143.00552 50.76215 0.41919308 0 0 249.04297 412.45117 A 143.00552 50.76215 0.41919308 0 0 392.42969 362.74219 A 143.00552 50.76215 0.41919308 0 0 342.66992 323.79883 L 340.27539 326.19336 A 121.81771 40.400068 1.0868813 0 1 371.82812 354.13867 A 121.81771 40.400068 1.0868813 0 1 299.04102 389.62305 A 116.48882 38.661067 0.44797144 0 1 249.03711 392.97852 A 116.48882 38.661067 0.44797144 0 1 142.32031 368.84766 A 121.81771 40.400068 1.0868813 0 1 128.23828 349.48828 A 121.81771 40.400068 1.0868813 0 1 159.84766 323.12695 L 158.61523 321.89258 z "
           transform="matrix(0.26458333,0,0,0.26458333,6.1889782,-9.1640791)" />
      </g>
      <g
         id="g2496"
         transform="matrix(1,0,0,0.98504216,0,-0.39928191)">
        <text
           xml:space="preserve"
           id="text1149"
           style="font-style:normal;font-variant:normal;font-weight:800;font-stretch:normal;font-size:10.7261px;line-height:1.25;font-family:Montserrat;-inkscape-font-specification:'Montserrat, Ultra-Bold';font-variant-ligatures:normal;font-variant-caps:normal;font-variant-numeric:normal;font-variant-east-asian:normal;white-space:pre;shape-inside:url(#rect1153);fill:#ff9a1a;fill-opacity:1;stroke:none;"
           transform="matrix(8.3902868,-0.08272147,0.16839929,7.0762639,-1468.8477,-1047.9008)"><tspan
             x="176.45312"
             y="158.78798"><tspan
               style="font-style:normal;font-variant:normal;font-weight:800;font-stretch:normal;font-size:10.7261px;font-family:Montserrat;-inkscape-font-specification:'Montserrat, Ultra-Bold';font-variant-ligatures:normal;font-variant-caps:normal;font-variant-numeric:normal;font-variant-east-asian:normal;fill:#ff9a1a;fill-opacity:1">V</tspan></tspan></text>
        <path
           style="fill:#ff9a1a;fill-opacity:1;stroke:#ff9a1a;stroke-width:3.83162;stroke-linecap:round;stroke-linejoin:round;stroke-miterlimit:4;stroke-dasharray:none;stroke-opacity:1"
           d="M 30.450501,16.875608 61.932852,3.26377 38.94387,-6.2454365 Z"
           id="path2438"
           sodipodi:nodetypes="cccc"
           inkscape:transform-center-x="-1.8999808"
           inkscape:transform-center-y="1.1629768" />
        <path
           style="fill:#ff9a1a;fill-opacity:1;stroke:#ff9a1a;stroke-width:3.83162;stroke-linecap:round;stroke-linejoin:round;stroke-miterlimit:4;stroke-dasharray:none;stroke-opacity:1"
           d="M 113.15239,17.056806 82.370222,2.0212223 105.79811,-6.4266141 Z"
           id="path2440"
           sodipodi:nodetypes="cccc"
           inkscape:transform-center-x="1.8999811"
           inkscape:transform-center-y="1.1629768" />
        <path
           style="fill:#ff9a1a;fill-opacity:1;stroke:#ff9a1a;stroke-width:4.09097;stroke-linecap:round;stroke-linejoin:round;stroke-miterlimit:4;stroke-dasharray:none;stroke-opacity:1"
           d="m 91.357116,60.381748 -36.574484,-0.0551 17.97427,19.111163 z"
           id="path2442"
           sodipodi:nodetypes="cccc"
           inkscape:transform-center-x="-0.17790464"
           inkscape:transform-center-y="2.9146117" />
      </g>
    </g>
  </g>
</svg>
